<mxfile host="app.diagrams.net" modified="2024-05-30T13:13:13.197Z" agent="Mozilla/5.0 (Windows NT 10.0; Win64; x64) AppleWebKit/537.36 (KHTML, like Gecko) Chrome/124.0.0.0 Safari/537.36 OPR/110.0.0.0" etag="WFhdBuCP0NABd8bZHdXs" version="24.4.10" type="google">
  <diagram id="808-wCSptjsMOYtlLv9o" name="Страница — 4">
    <mxGraphModel dx="996" dy="565" grid="1" gridSize="10" guides="1" tooltips="1" connect="1" arrows="1" fold="1" page="1" pageScale="1" pageWidth="827" pageHeight="1169" math="0" shadow="0">
      <root>
        <mxCell id="0" />
        <mxCell id="1" parent="0" />
        <mxCell id="mAFbolSCJHfWEp51RzOa-1" value="Пользователь" style="swimlane;whiteSpace=wrap;html=1;" parent="1" vertex="1">
          <mxGeometry x="80" y="80" width="440" height="440" as="geometry" />
        </mxCell>
        <mxCell id="mAFbolSCJHfWEp51RzOa-3" value="" style="shape=waypoint;sketch=0;fillStyle=solid;size=6;pointerEvents=1;points=[];fillColor=none;resizable=0;rotatable=0;perimeter=centerPerimeter;snapToPoint=1;strokeWidth=10;" parent="mAFbolSCJHfWEp51RzOa-1" vertex="1">
          <mxGeometry x="210" y="60" width="20" height="20" as="geometry" />
        </mxCell>
        <mxCell id="eds8DtG4X1OZANK-gspZ-2" style="edgeStyle=orthogonalEdgeStyle;rounded=0;orthogonalLoop=1;jettySize=auto;html=1;exitX=0.5;exitY=1;exitDx=0;exitDy=0;entryX=0.5;entryY=0;entryDx=0;entryDy=0;" parent="mAFbolSCJHfWEp51RzOa-1" source="mAFbolSCJHfWEp51RzOa-4" target="eds8DtG4X1OZANK-gspZ-1" edge="1">
          <mxGeometry relative="1" as="geometry" />
        </mxCell>
        <mxCell id="eds8DtG4X1OZANK-gspZ-3" style="edgeStyle=orthogonalEdgeStyle;rounded=0;orthogonalLoop=1;jettySize=auto;html=1;exitX=0.5;exitY=1;exitDx=0;exitDy=0;entryX=0.5;entryY=0;entryDx=0;entryDy=0;" parent="mAFbolSCJHfWEp51RzOa-1" source="mAFbolSCJHfWEp51RzOa-4" target="mAFbolSCJHfWEp51RzOa-5" edge="1">
          <mxGeometry relative="1" as="geometry" />
        </mxCell>
        <mxCell id="eds8DtG4X1OZANK-gspZ-4" style="edgeStyle=orthogonalEdgeStyle;rounded=0;orthogonalLoop=1;jettySize=auto;html=1;exitX=0.5;exitY=1;exitDx=0;exitDy=0;entryX=0.5;entryY=0;entryDx=0;entryDy=0;" parent="mAFbolSCJHfWEp51RzOa-1" source="mAFbolSCJHfWEp51RzOa-4" target="1jhg_bQXaFZTzKgUqLDe-1" edge="1">
          <mxGeometry relative="1" as="geometry" />
        </mxCell>
        <mxCell id="mAFbolSCJHfWEp51RzOa-4" value="Запуск приложения" style="rounded=0;whiteSpace=wrap;html=1;" parent="mAFbolSCJHfWEp51RzOa-1" vertex="1">
          <mxGeometry x="160" y="120" width="120" height="30" as="geometry" />
        </mxCell>
        <mxCell id="mAFbolSCJHfWEp51RzOa-5" value="Распределение работы и планирование ресурсов" style="rounded=0;whiteSpace=wrap;html=1;" parent="mAFbolSCJHfWEp51RzOa-1" vertex="1">
          <mxGeometry x="60" y="200" width="120" height="60" as="geometry" />
        </mxCell>
        <mxCell id="1jhg_bQXaFZTzKgUqLDe-1" value="Оптимизация графиков работы" style="rounded=0;whiteSpace=wrap;html=1;" parent="mAFbolSCJHfWEp51RzOa-1" vertex="1">
          <mxGeometry x="160" y="280" width="120" height="40" as="geometry" />
        </mxCell>
        <mxCell id="eds8DtG4X1OZANK-gspZ-1" value="Анализ неудачных ремонтов" style="rounded=0;whiteSpace=wrap;html=1;" parent="mAFbolSCJHfWEp51RzOa-1" vertex="1">
          <mxGeometry x="260" y="200" width="120" height="40" as="geometry" />
        </mxCell>
        <mxCell id="eds8DtG4X1OZANK-gspZ-10" value="Получение информации по запросу" style="rounded=0;whiteSpace=wrap;html=1;" parent="mAFbolSCJHfWEp51RzOa-1" vertex="1">
          <mxGeometry x="160" y="337" width="120" height="54" as="geometry" />
        </mxCell>
        <mxCell id="mAFbolSCJHfWEp51RzOa-2" value="Приложение" style="swimlane;whiteSpace=wrap;html=1;" parent="1" vertex="1">
          <mxGeometry x="520" y="80" width="240" height="440" as="geometry" />
        </mxCell>
        <mxCell id="eds8DtG4X1OZANK-gspZ-8" style="edgeStyle=orthogonalEdgeStyle;rounded=0;orthogonalLoop=1;jettySize=auto;html=1;exitX=0.5;exitY=1;exitDx=0;exitDy=0;entryX=0.5;entryY=0;entryDx=0;entryDy=0;" parent="mAFbolSCJHfWEp51RzOa-2" source="eds8DtG4X1OZANK-gspZ-5" target="eds8DtG4X1OZANK-gspZ-7" edge="1">
          <mxGeometry relative="1" as="geometry" />
        </mxCell>
        <mxCell id="eds8DtG4X1OZANK-gspZ-5" value="Запрос" style="rounded=0;whiteSpace=wrap;html=1;" parent="mAFbolSCJHfWEp51RzOa-2" vertex="1">
          <mxGeometry x="80" y="285" width="120" height="30" as="geometry" />
        </mxCell>
        <mxCell id="eds8DtG4X1OZANK-gspZ-9" style="edgeStyle=orthogonalEdgeStyle;rounded=0;orthogonalLoop=1;jettySize=auto;html=1;exitX=0;exitY=0.5;exitDx=0;exitDy=0;" parent="mAFbolSCJHfWEp51RzOa-2" source="eds8DtG4X1OZANK-gspZ-7" edge="1">
          <mxGeometry relative="1" as="geometry">
            <mxPoint x="-160" y="365" as="targetPoint" />
          </mxGeometry>
        </mxCell>
        <mxCell id="eds8DtG4X1OZANK-gspZ-7" value="Отправка результата запроса" style="rounded=0;whiteSpace=wrap;html=1;" parent="mAFbolSCJHfWEp51RzOa-2" vertex="1">
          <mxGeometry x="80" y="350" width="120" height="30" as="geometry" />
        </mxCell>
        <mxCell id="eds8DtG4X1OZANK-gspZ-6" style="edgeStyle=orthogonalEdgeStyle;rounded=0;orthogonalLoop=1;jettySize=auto;html=1;exitX=1;exitY=0.5;exitDx=0;exitDy=0;entryX=0;entryY=0.5;entryDx=0;entryDy=0;" parent="1" source="1jhg_bQXaFZTzKgUqLDe-1" target="eds8DtG4X1OZANK-gspZ-5" edge="1">
          <mxGeometry relative="1" as="geometry" />
        </mxCell>
      </root>
    </mxGraphModel>
  </diagram>
</mxfile>
